<?xml version="1.0" encoding="UTF-8" standalone="no"?>
<!DOCTYPE svg PUBLIC "-//W3C//DTD SVG 1.1//EN"
 "http://www.w3.org/Graphics/SVG/1.1/DTD/svg11.dtd">
<!-- Generated by graphviz version 2.43.0 (0)
 -->
<!-- Title: %3 Pages: 1 -->
<svg width="2748pt" height="836pt"
 viewBox="0.00 0.00 2747.73 836.00" xmlns="http://www.w3.org/2000/svg" xmlns:xlink="http://www.w3.org/1999/xlink">
<g id="graph0" class="graph" transform="scale(1 1) rotate(0) translate(4 832)">
<title>%3</title>
<polygon fill="white" stroke="transparent" points="-4,4 -4,-832 2743.73,-832 2743.73,4 -4,4"/>
<!-- 0 -->
<g id="node1" class="node">
<title>0</title>
<ellipse fill="none" stroke="black" cx="1855.74" cy="-306" rx="54.69" ry="18"/>
<text text-anchor="middle" x="1855.74" y="-302.3" font-family="Times,serif" font-size="14.00">anstream</text>
</g>
<!-- 1 -->
<g id="node2" class="node">
<title>1</title>
<ellipse fill="none" stroke="black" cx="1586.74" cy="-162" rx="44.39" ry="18"/>
<text text-anchor="middle" x="1586.74" y="-158.3" font-family="Times,serif" font-size="14.00">anstyle</text>
</g>
<!-- 0&#45;&gt;1 -->
<g id="edge1" class="edge">
<title>0&#45;&gt;1</title>
<path fill="none" stroke="black" d="M1803.63,-300.57C1738.74,-293.96 1633.06,-279.27 1605.74,-252 1589.8,-236.08 1585.73,-210.28 1585.24,-190.55"/>
<polygon fill="black" stroke="black" points="1588.74,-190.33 1585.29,-180.31 1581.74,-190.3 1588.74,-190.33"/>
</g>
<!-- 2 -->
<g id="node3" class="node">
<title>2</title>
<ellipse fill="none" stroke="black" cx="2176.74" cy="-234" rx="73.39" ry="18"/>
<text text-anchor="middle" x="2176.74" y="-230.3" font-family="Times,serif" font-size="14.00">anstyle&#45;parse</text>
</g>
<!-- 0&#45;&gt;2 -->
<g id="edge2" class="edge">
<title>0&#45;&gt;2</title>
<path fill="none" stroke="black" d="M1900.04,-295.34C1955.55,-283.24 2051.02,-262.42 2114.02,-248.68"/>
<polygon fill="black" stroke="black" points="2114.82,-252.09 2123.84,-246.54 2113.33,-245.25 2114.82,-252.09"/>
</g>
<!-- 3 -->
<g id="node4" class="node">
<title>3</title>
<ellipse fill="none" stroke="black" cx="2010.74" cy="-234" rx="74.19" ry="18"/>
<text text-anchor="middle" x="2010.74" y="-230.3" font-family="Times,serif" font-size="14.00">anstyle&#45;query</text>
</g>
<!-- 0&#45;&gt;3 -->
<g id="edge3" class="edge">
<title>0&#45;&gt;3</title>
<path fill="none" stroke="black" d="M1886.74,-291C1910.03,-280.48 1942.21,-265.95 1967.95,-254.33"/>
<polygon fill="black" stroke="black" points="1969.44,-257.49 1977.12,-250.19 1966.56,-251.11 1969.44,-257.49"/>
</g>
<!-- 4 -->
<g id="node5" class="node">
<title>4</title>
<ellipse fill="none" stroke="black" cx="1694.74" cy="-234" rx="79.89" ry="18"/>
<text text-anchor="middle" x="1694.74" y="-230.3" font-family="Times,serif" font-size="14.00">anstyle&#45;wincon</text>
</g>
<!-- 0&#45;&gt;4 -->
<g id="edge4" class="edge">
<title>0&#45;&gt;4</title>
<path fill="none" stroke="black" d="M1823.94,-291.17C1799.67,-280.62 1765.95,-265.96 1739.05,-254.26"/>
<polygon fill="black" stroke="black" points="1740.41,-251.04 1729.84,-250.26 1737.62,-257.46 1740.41,-251.04"/>
</g>
<!-- 11 -->
<g id="node12" class="node">
<title>11</title>
<ellipse fill="none" stroke="black" cx="1855.74" cy="-234" rx="63.09" ry="18"/>
<text text-anchor="middle" x="1855.74" y="-230.3" font-family="Times,serif" font-size="14.00">colorchoice</text>
</g>
<!-- 0&#45;&gt;11 -->
<g id="edge5" class="edge">
<title>0&#45;&gt;11</title>
<path fill="none" stroke="black" d="M1855.74,-287.7C1855.74,-279.98 1855.74,-270.71 1855.74,-262.11"/>
<polygon fill="black" stroke="black" points="1859.24,-262.1 1855.74,-252.1 1852.24,-262.1 1859.24,-262.1"/>
</g>
<!-- 39 -->
<g id="node40" class="node">
<title>39</title>
<ellipse fill="none" stroke="black" cx="2226.74" cy="-162" rx="55.79" ry="18"/>
<text text-anchor="middle" x="2226.74" y="-158.3" font-family="Times,serif" font-size="14.00">utf8parse</text>
</g>
<!-- 0&#45;&gt;39 -->
<g id="edge6" class="edge">
<title>0&#45;&gt;39</title>
<path fill="none" stroke="black" d="M1909.22,-301.84C2013.54,-295.12 2236.03,-277.9 2258.74,-252 2274.68,-233.83 2261.71,-207.12 2247.8,-187.71"/>
<polygon fill="black" stroke="black" points="2250.5,-185.47 2241.66,-179.62 2244.92,-189.7 2250.5,-185.47"/>
</g>
<!-- 2&#45;&gt;39 -->
<g id="edge7" class="edge">
<title>2&#45;&gt;39</title>
<path fill="none" stroke="black" d="M2188.85,-216.05C2194.87,-207.63 2202.26,-197.28 2208.91,-187.97"/>
<polygon fill="black" stroke="black" points="2211.79,-189.96 2214.75,-179.79 2206.09,-185.89 2211.79,-189.96"/>
</g>
<!-- 40 -->
<g id="node41" class="node">
<title>40</title>
<ellipse fill="none" stroke="black" cx="1864.74" cy="-162" rx="69.59" ry="18"/>
<text text-anchor="middle" x="1864.74" y="-158.3" font-family="Times,serif" font-size="14.00">windows&#45;sys</text>
</g>
<!-- 3&#45;&gt;40 -->
<g id="edge8" class="edge">
<title>3&#45;&gt;40</title>
<path fill="none" stroke="black" d="M1978.7,-217.64C1957.16,-207.31 1928.58,-193.61 1905.43,-182.51"/>
<polygon fill="black" stroke="black" points="1906.74,-179.25 1896.21,-178.09 1903.71,-185.56 1906.74,-179.25"/>
</g>
<!-- 4&#45;&gt;1 -->
<g id="edge9" class="edge">
<title>4&#45;&gt;1</title>
<path fill="none" stroke="black" d="M1669.7,-216.76C1654.34,-206.81 1634.56,-193.99 1618.16,-183.36"/>
<polygon fill="black" stroke="black" points="1619.75,-180.22 1609.45,-177.72 1615.94,-186.09 1619.75,-180.22"/>
</g>
<!-- 4&#45;&gt;40 -->
<g id="edge10" class="edge">
<title>4&#45;&gt;40</title>
<path fill="none" stroke="black" d="M1731.63,-217.81C1757.58,-207.13 1792.44,-192.77 1819.97,-181.43"/>
<polygon fill="black" stroke="black" points="1821.47,-184.6 1829.38,-177.56 1818.8,-178.13 1821.47,-184.6"/>
</g>
<!-- 5 -->
<g id="node6" class="node">
<title>5</title>
<ellipse fill="none" stroke="black" cx="621.74" cy="-738" rx="57.69" ry="18"/>
<text text-anchor="middle" x="621.74" y="-734.3" font-family="Times,serif" font-size="14.00">cargo&#45;lock</text>
</g>
<!-- 21 -->
<g id="node22" class="node">
<title>21</title>
<ellipse fill="none" stroke="black" cx="257.74" cy="-666" rx="53.09" ry="18"/>
<text text-anchor="middle" x="257.74" y="-662.3" font-family="Times,serif" font-size="14.00">petgraph</text>
</g>
<!-- 5&#45;&gt;21 -->
<g id="edge11" class="edge">
<title>5&#45;&gt;21</title>
<path fill="none" stroke="black" d="M573.78,-727.78C506.44,-714.83 384.15,-691.31 313.05,-677.64"/>
<polygon fill="black" stroke="black" points="313.43,-674.14 302.95,-675.69 312.11,-681.02 313.43,-674.14"/>
</g>
<!-- 24 -->
<g id="node25" class="node">
<title>24</title>
<ellipse fill="none" stroke="black" cx="475.74" cy="-666" rx="44.69" ry="18"/>
<text text-anchor="middle" x="475.74" y="-662.3" font-family="Times,serif" font-size="14.00">semver</text>
</g>
<!-- 5&#45;&gt;24 -->
<g id="edge12" class="edge">
<title>5&#45;&gt;24</title>
<path fill="none" stroke="black" d="M591.49,-722.5C568.64,-711.54 537.14,-696.44 512.78,-684.76"/>
<polygon fill="black" stroke="black" points="514.02,-681.47 503.49,-680.3 510.99,-687.78 514.02,-681.47"/>
</g>
<!-- 25 -->
<g id="node26" class="node">
<title>25</title>
<ellipse fill="none" stroke="black" cx="700.74" cy="-450" rx="36.29" ry="18"/>
<text text-anchor="middle" x="700.74" y="-446.3" font-family="Times,serif" font-size="14.00">serde</text>
</g>
<!-- 5&#45;&gt;25 -->
<g id="edge13" class="edge">
<title>5&#45;&gt;25</title>
<path fill="none" stroke="black" d="M646.34,-721.58C689.81,-692.53 778.04,-624.9 803.74,-540 808.38,-524.69 812.08,-517.66 803.74,-504 790.52,-482.32 765.27,-469.13 743.08,-461.33"/>
<polygon fill="black" stroke="black" points="744.07,-457.97 733.48,-458.21 741.91,-464.63 744.07,-457.97"/>
</g>
<!-- 32 -->
<g id="node33" class="node">
<title>32</title>
<ellipse fill="none" stroke="black" cx="621.74" cy="-666" rx="31.7" ry="18"/>
<text text-anchor="middle" x="621.74" y="-662.3" font-family="Times,serif" font-size="14.00">toml</text>
</g>
<!-- 5&#45;&gt;32 -->
<g id="edge14" class="edge">
<title>5&#45;&gt;32</title>
<path fill="none" stroke="black" d="M621.74,-719.7C621.74,-711.98 621.74,-702.71 621.74,-694.11"/>
<polygon fill="black" stroke="black" points="625.24,-694.1 621.74,-684.1 618.24,-694.1 625.24,-694.1"/>
</g>
<!-- 38 -->
<g id="node39" class="node">
<title>38</title>
<ellipse fill="none" stroke="black" cx="1174.74" cy="-666" rx="27" ry="18"/>
<text text-anchor="middle" x="1174.74" y="-662.3" font-family="Times,serif" font-size="14.00">url</text>
</g>
<!-- 5&#45;&gt;38 -->
<g id="edge15" class="edge">
<title>5&#45;&gt;38</title>
<path fill="none" stroke="black" d="M674.27,-730.35C785.62,-716.26 1042.99,-683.68 1138.35,-671.61"/>
<polygon fill="black" stroke="black" points="1138.89,-675.07 1148.37,-670.34 1138.01,-668.12 1138.89,-675.07"/>
</g>
<!-- 6 -->
<g id="node7" class="node">
<title>6</title>
<ellipse fill="none" stroke="black" cx="621.74" cy="-810" rx="71.49" ry="18"/>
<text text-anchor="middle" x="621.74" y="-806.3" font-family="Times,serif" font-size="14.00">cargo&#45;vistree</text>
</g>
<!-- 6&#45;&gt;5 -->
<g id="edge16" class="edge">
<title>6&#45;&gt;5</title>
<path fill="none" stroke="black" d="M621.74,-791.7C621.74,-783.98 621.74,-774.71 621.74,-766.11"/>
<polygon fill="black" stroke="black" points="625.24,-766.1 621.74,-756.1 618.24,-766.1 625.24,-766.1"/>
</g>
<!-- 7 -->
<g id="node8" class="node">
<title>7</title>
<ellipse fill="none" stroke="black" cx="1480.74" cy="-450" rx="29.8" ry="18"/>
<text text-anchor="middle" x="1480.74" y="-446.3" font-family="Times,serif" font-size="14.00">clap</text>
</g>
<!-- 6&#45;&gt;7 -->
<g id="edge17" class="edge">
<title>6&#45;&gt;7</title>
<path fill="none" stroke="black" d="M690.59,-804.86C894.43,-791.71 1480.74,-746.92 1480.74,-667 1480.74,-667 1480.74,-667 1480.74,-593 1480.74,-553 1480.74,-506.65 1480.74,-478.08"/>
<polygon fill="black" stroke="black" points="1484.24,-478.05 1480.74,-468.05 1477.24,-478.05 1484.24,-478.05"/>
</g>
<!-- 6&#45;&gt;21 -->
<g id="edge18" class="edge">
<title>6&#45;&gt;21</title>
<path fill="none" stroke="black" d="M584.5,-794.47C516.58,-767.97 372.95,-711.94 300.89,-683.83"/>
<polygon fill="black" stroke="black" points="301.8,-680.43 291.21,-680.06 299.26,-686.95 301.8,-680.43"/>
</g>
<!-- 8 -->
<g id="node9" class="node">
<title>8</title>
<ellipse fill="none" stroke="black" cx="1480.74" cy="-378" rx="67.69" ry="18"/>
<text text-anchor="middle" x="1480.74" y="-374.3" font-family="Times,serif" font-size="14.00">clap_builder</text>
</g>
<!-- 7&#45;&gt;8 -->
<g id="edge19" class="edge">
<title>7&#45;&gt;8</title>
<path fill="none" stroke="black" d="M1480.74,-431.7C1480.74,-423.98 1480.74,-414.71 1480.74,-406.11"/>
<polygon fill="black" stroke="black" points="1484.24,-406.1 1480.74,-396.1 1477.24,-406.1 1484.24,-406.1"/>
</g>
<!-- 9 -->
<g id="node10" class="node">
<title>9</title>
<ellipse fill="none" stroke="black" cx="1299.74" cy="-378" rx="63.89" ry="18"/>
<text text-anchor="middle" x="1299.74" y="-374.3" font-family="Times,serif" font-size="14.00">clap_derive</text>
</g>
<!-- 7&#45;&gt;9 -->
<g id="edge20" class="edge">
<title>7&#45;&gt;9</title>
<path fill="none" stroke="black" d="M1456.33,-439.56C1428.02,-428.61 1380.73,-410.32 1345.52,-396.7"/>
<polygon fill="black" stroke="black" points="1346.52,-393.34 1335.93,-392.99 1343.99,-399.87 1346.52,-393.34"/>
</g>
<!-- 8&#45;&gt;0 -->
<g id="edge21" class="edge">
<title>8&#45;&gt;0</title>
<path fill="none" stroke="black" d="M1534.47,-366.97C1604.83,-353.84 1727.63,-330.92 1799.3,-317.54"/>
<polygon fill="black" stroke="black" points="1800.31,-320.91 1809.5,-315.63 1799.02,-314.03 1800.31,-320.91"/>
</g>
<!-- 8&#45;&gt;1 -->
<g id="edge22" class="edge">
<title>8&#45;&gt;1</title>
<path fill="none" stroke="black" d="M1499.5,-360.34C1509.59,-350.57 1521.58,-337.52 1529.74,-324 1556.02,-280.48 1572.67,-223.04 1580.8,-189.85"/>
<polygon fill="black" stroke="black" points="1584.24,-190.51 1583.14,-179.97 1577.43,-188.89 1584.24,-190.51"/>
</g>
<!-- 10 -->
<g id="node11" class="node">
<title>10</title>
<ellipse fill="none" stroke="black" cx="1374.74" cy="-306" rx="48.19" ry="18"/>
<text text-anchor="middle" x="1374.74" y="-302.3" font-family="Times,serif" font-size="14.00">clap_lex</text>
</g>
<!-- 8&#45;&gt;10 -->
<g id="edge23" class="edge">
<title>8&#45;&gt;10</title>
<path fill="none" stroke="black" d="M1456.69,-361.12C1441.75,-351.25 1422.37,-338.45 1406.21,-327.78"/>
<polygon fill="black" stroke="black" points="1407.89,-324.69 1397.61,-322.1 1404.03,-330.53 1407.89,-324.69"/>
</g>
<!-- 28 -->
<g id="node29" class="node">
<title>28</title>
<ellipse fill="none" stroke="black" cx="1480.74" cy="-306" rx="40.09" ry="18"/>
<text text-anchor="middle" x="1480.74" y="-302.3" font-family="Times,serif" font-size="14.00">strsim</text>
</g>
<!-- 8&#45;&gt;28 -->
<g id="edge24" class="edge">
<title>8&#45;&gt;28</title>
<path fill="none" stroke="black" d="M1480.74,-359.7C1480.74,-351.98 1480.74,-342.71 1480.74,-334.11"/>
<polygon fill="black" stroke="black" points="1484.24,-334.1 1480.74,-324.1 1477.24,-334.1 1484.24,-334.1"/>
</g>
<!-- 16 -->
<g id="node17" class="node">
<title>16</title>
<ellipse fill="none" stroke="black" cx="1238.74" cy="-306" rx="32.49" ry="18"/>
<text text-anchor="middle" x="1238.74" y="-302.3" font-family="Times,serif" font-size="14.00">heck</text>
</g>
<!-- 9&#45;&gt;16 -->
<g id="edge25" class="edge">
<title>9&#45;&gt;16</title>
<path fill="none" stroke="black" d="M1285.29,-360.41C1277.39,-351.35 1267.49,-339.99 1258.86,-330.08"/>
<polygon fill="black" stroke="black" points="1261.47,-327.75 1252.26,-322.51 1256.19,-332.35 1261.47,-327.75"/>
</g>
<!-- 22 -->
<g id="node23" class="node">
<title>22</title>
<ellipse fill="none" stroke="black" cx="1126.74" cy="-162" rx="68.79" ry="18"/>
<text text-anchor="middle" x="1126.74" y="-158.3" font-family="Times,serif" font-size="14.00">proc&#45;macro2</text>
</g>
<!-- 9&#45;&gt;22 -->
<g id="edge26" class="edge">
<title>9&#45;&gt;22</title>
<path fill="none" stroke="black" d="M1299.17,-359.68C1297.82,-340.78 1293.48,-310.23 1279.74,-288 1251.24,-241.87 1199.59,-205.04 1164.25,-183.62"/>
<polygon fill="black" stroke="black" points="1166.03,-180.6 1155.64,-178.51 1162.46,-186.62 1166.03,-180.6"/>
</g>
<!-- 23 -->
<g id="node24" class="node">
<title>23</title>
<ellipse fill="none" stroke="black" cx="1132.74" cy="-234" rx="37.09" ry="18"/>
<text text-anchor="middle" x="1132.74" y="-230.3" font-family="Times,serif" font-size="14.00">quote</text>
</g>
<!-- 9&#45;&gt;23 -->
<g id="edge27" class="edge">
<title>9&#45;&gt;23</title>
<path fill="none" stroke="black" d="M1263.28,-362.98C1242.62,-353.89 1217.12,-340.64 1197.74,-324 1176.66,-305.89 1158.58,-279.69 1146.88,-260.4"/>
<polygon fill="black" stroke="black" points="1149.76,-258.39 1141.66,-251.55 1143.73,-261.94 1149.76,-258.39"/>
</g>
<!-- 29 -->
<g id="node30" class="node">
<title>29</title>
<ellipse fill="none" stroke="black" cx="1067.74" cy="-306" rx="27" ry="18"/>
<text text-anchor="middle" x="1067.74" y="-302.3" font-family="Times,serif" font-size="14.00">syn</text>
</g>
<!-- 9&#45;&gt;29 -->
<g id="edge28" class="edge">
<title>9&#45;&gt;29</title>
<path fill="none" stroke="black" d="M1258,-364.4C1213.17,-350.88 1142.8,-329.65 1101.38,-317.15"/>
<polygon fill="black" stroke="black" points="1102.34,-313.78 1091.75,-314.24 1100.32,-320.48 1102.34,-313.78"/>
</g>
<!-- 12 -->
<g id="node13" class="node">
<title>12</title>
<ellipse fill="none" stroke="black" cx="201.74" cy="-450" rx="59.59" ry="18"/>
<text text-anchor="middle" x="201.74" y="-446.3" font-family="Times,serif" font-size="14.00">equivalent</text>
</g>
<!-- 13 -->
<g id="node14" class="node">
<title>13</title>
<ellipse fill="none" stroke="black" cx="143.74" cy="-594" rx="59.59" ry="18"/>
<text text-anchor="middle" x="143.74" y="-590.3" font-family="Times,serif" font-size="14.00">fixedbitset</text>
</g>
<!-- 14 -->
<g id="node15" class="node">
<title>14</title>
<ellipse fill="none" stroke="black" cx="1338.74" cy="-594" rx="89.08" ry="18"/>
<text text-anchor="middle" x="1338.74" y="-590.3" font-family="Times,serif" font-size="14.00">form_urlencoded</text>
</g>
<!-- 20 -->
<g id="node21" class="node">
<title>20</title>
<ellipse fill="none" stroke="black" cx="1361.74" cy="-522" rx="90.98" ry="18"/>
<text text-anchor="middle" x="1361.74" y="-518.3" font-family="Times,serif" font-size="14.00">percent&#45;encoding</text>
</g>
<!-- 14&#45;&gt;20 -->
<g id="edge29" class="edge">
<title>14&#45;&gt;20</title>
<path fill="none" stroke="black" d="M1344.43,-575.7C1346.99,-567.9 1350.08,-558.51 1352.93,-549.83"/>
<polygon fill="black" stroke="black" points="1356.33,-550.7 1356.12,-540.1 1349.68,-548.51 1356.33,-550.7"/>
</g>
<!-- 15 -->
<g id="node16" class="node">
<title>15</title>
<ellipse fill="none" stroke="black" cx="61.74" cy="-450" rx="61.99" ry="18"/>
<text text-anchor="middle" x="61.74" y="-446.3" font-family="Times,serif" font-size="14.00">hashbrown</text>
</g>
<!-- 17 -->
<g id="node18" class="node">
<title>17</title>
<ellipse fill="none" stroke="black" cx="1138.74" cy="-594" rx="30.59" ry="18"/>
<text text-anchor="middle" x="1138.74" y="-590.3" font-family="Times,serif" font-size="14.00">idna</text>
</g>
<!-- 35 -->
<g id="node36" class="node">
<title>35</title>
<ellipse fill="none" stroke="black" cx="939.74" cy="-522" rx="67.69" ry="18"/>
<text text-anchor="middle" x="939.74" y="-518.3" font-family="Times,serif" font-size="14.00">unicode&#45;bidi</text>
</g>
<!-- 17&#45;&gt;35 -->
<g id="edge30" class="edge">
<title>17&#45;&gt;35</title>
<path fill="none" stroke="black" d="M1113.14,-583.99C1081.78,-572.96 1028,-554.04 988.63,-540.2"/>
<polygon fill="black" stroke="black" points="989.55,-536.81 978.95,-536.79 987.22,-543.41 989.55,-536.81"/>
</g>
<!-- 37 -->
<g id="node38" class="node">
<title>37</title>
<ellipse fill="none" stroke="black" cx="1138.74" cy="-522" rx="113.98" ry="18"/>
<text text-anchor="middle" x="1138.74" y="-518.3" font-family="Times,serif" font-size="14.00">unicode&#45;normalization</text>
</g>
<!-- 17&#45;&gt;37 -->
<g id="edge31" class="edge">
<title>17&#45;&gt;37</title>
<path fill="none" stroke="black" d="M1138.74,-575.7C1138.74,-567.98 1138.74,-558.71 1138.74,-550.11"/>
<polygon fill="black" stroke="black" points="1142.24,-550.1 1138.74,-540.1 1135.24,-550.1 1142.24,-550.1"/>
</g>
<!-- 18 -->
<g id="node19" class="node">
<title>18</title>
<ellipse fill="none" stroke="black" cx="185.74" cy="-522" rx="55.79" ry="18"/>
<text text-anchor="middle" x="185.74" y="-518.3" font-family="Times,serif" font-size="14.00">indexmap</text>
</g>
<!-- 18&#45;&gt;12 -->
<g id="edge32" class="edge">
<title>18&#45;&gt;12</title>
<path fill="none" stroke="black" d="M189.7,-503.7C191.46,-495.98 193.58,-486.71 195.55,-478.11"/>
<polygon fill="black" stroke="black" points="199.02,-478.63 197.83,-468.1 192.19,-477.07 199.02,-478.63"/>
</g>
<!-- 18&#45;&gt;15 -->
<g id="edge33" class="edge">
<title>18&#45;&gt;15</title>
<path fill="none" stroke="black" d="M159.14,-505.98C141.2,-495.86 117.32,-482.37 97.69,-471.29"/>
<polygon fill="black" stroke="black" points="99.16,-468.1 88.73,-466.23 95.72,-474.2 99.16,-468.1"/>
</g>
<!-- 19 -->
<g id="node20" class="node">
<title>19</title>
<ellipse fill="none" stroke="black" cx="343.74" cy="-450" rx="48.99" ry="18"/>
<text text-anchor="middle" x="343.74" y="-446.3" font-family="Times,serif" font-size="14.00">memchr</text>
</g>
<!-- 21&#45;&gt;13 -->
<g id="edge34" class="edge">
<title>21&#45;&gt;13</title>
<path fill="none" stroke="black" d="M233.29,-649.98C217.13,-640.06 195.73,-626.92 177.9,-615.97"/>
<polygon fill="black" stroke="black" points="179.3,-612.73 168.95,-610.48 175.64,-618.69 179.3,-612.73"/>
</g>
<!-- 21&#45;&gt;18 -->
<g id="edge35" class="edge">
<title>21&#45;&gt;18</title>
<path fill="none" stroke="black" d="M249.13,-647.93C240.09,-630.01 225.44,-601.01 212.74,-576 208.33,-567.3 203.5,-557.81 199.16,-549.29"/>
<polygon fill="black" stroke="black" points="202.17,-547.5 194.51,-540.18 195.94,-550.68 202.17,-547.5"/>
</g>
<!-- 36 -->
<g id="node37" class="node">
<title>36</title>
<ellipse fill="none" stroke="black" cx="1078.74" cy="-90" rx="73.39" ry="18"/>
<text text-anchor="middle" x="1078.74" y="-86.3" font-family="Times,serif" font-size="14.00">unicode&#45;ident</text>
</g>
<!-- 22&#45;&gt;36 -->
<g id="edge36" class="edge">
<title>22&#45;&gt;36</title>
<path fill="none" stroke="black" d="M1115.13,-144.05C1109.41,-135.71 1102.4,-125.49 1096.06,-116.25"/>
<polygon fill="black" stroke="black" points="1098.8,-114.06 1090.26,-107.79 1093.03,-118.02 1098.8,-114.06"/>
</g>
<!-- 23&#45;&gt;22 -->
<g id="edge37" class="edge">
<title>23&#45;&gt;22</title>
<path fill="none" stroke="black" d="M1131.26,-215.7C1130.6,-207.98 1129.81,-198.71 1129.07,-190.11"/>
<polygon fill="black" stroke="black" points="1132.55,-189.77 1128.21,-180.1 1125.58,-190.37 1132.55,-189.77"/>
</g>
<!-- 24&#45;&gt;25 -->
<g id="edge38" class="edge">
<title>24&#45;&gt;25</title>
<path fill="none" stroke="black" d="M442.67,-653.76C375.22,-629.17 232.72,-567.69 288.74,-504 312.63,-476.84 552.08,-459.7 654.58,-453.56"/>
<polygon fill="black" stroke="black" points="654.87,-457.05 664.65,-452.96 654.46,-450.06 654.87,-457.05"/>
</g>
<!-- 26 -->
<g id="node27" class="node">
<title>26</title>
<ellipse fill="none" stroke="black" cx="964.74" cy="-378" rx="70.39" ry="18"/>
<text text-anchor="middle" x="964.74" y="-374.3" font-family="Times,serif" font-size="14.00">serde_derive</text>
</g>
<!-- 25&#45;&gt;26 -->
<g id="edge39" class="edge">
<title>25&#45;&gt;26</title>
<path fill="none" stroke="black" d="M732.07,-440.7C775.4,-429.21 854.37,-408.27 908.17,-394"/>
<polygon fill="black" stroke="black" points="909.14,-397.36 917.91,-391.42 907.35,-390.6 909.14,-397.36"/>
</g>
<!-- 26&#45;&gt;22 -->
<g id="edge40" class="edge">
<title>26&#45;&gt;22</title>
<path fill="none" stroke="black" d="M974.55,-359.7C992.15,-329.25 1031.11,-264.71 1071.74,-216 1080.31,-205.74 1090.65,-195.34 1100.05,-186.51"/>
<polygon fill="black" stroke="black" points="1102.68,-188.84 1107.66,-179.49 1097.93,-183.7 1102.68,-188.84"/>
</g>
<!-- 26&#45;&gt;23 -->
<g id="edge41" class="edge">
<title>26&#45;&gt;23</title>
<path fill="none" stroke="black" d="M1010.34,-364.27C1045.57,-353.6 1090.48,-337.94 1103.74,-324 1119.63,-307.31 1126.81,-281.82 1130.06,-262.39"/>
<polygon fill="black" stroke="black" points="1133.55,-262.7 1131.49,-252.31 1126.62,-261.72 1133.55,-262.7"/>
</g>
<!-- 26&#45;&gt;29 -->
<g id="edge42" class="edge">
<title>26&#45;&gt;29</title>
<path fill="none" stroke="black" d="M988.37,-360.94C1004.01,-350.31 1024.55,-336.36 1040.82,-325.3"/>
<polygon fill="black" stroke="black" points="1043.05,-328.01 1049.36,-319.5 1039.12,-322.22 1043.05,-328.01"/>
</g>
<!-- 27 -->
<g id="node28" class="node">
<title>27</title>
<ellipse fill="none" stroke="black" cx="525.74" cy="-522" rx="79.89" ry="18"/>
<text text-anchor="middle" x="525.74" y="-518.3" font-family="Times,serif" font-size="14.00">serde_spanned</text>
</g>
<!-- 27&#45;&gt;25 -->
<g id="edge43" class="edge">
<title>27&#45;&gt;25</title>
<path fill="none" stroke="black" d="M563.29,-505.98C592.97,-494.11 634.2,-477.62 663.74,-465.8"/>
<polygon fill="black" stroke="black" points="665.29,-468.95 673.28,-461.99 662.7,-462.45 665.29,-468.95"/>
</g>
<!-- 29&#45;&gt;22 -->
<g id="edge44" class="edge">
<title>29&#45;&gt;22</title>
<path fill="none" stroke="black" d="M1069.17,-287.91C1071.21,-269.47 1075.98,-239.57 1086.74,-216 1091.27,-206.09 1097.91,-196.28 1104.48,-187.83"/>
<polygon fill="black" stroke="black" points="1107.34,-189.86 1110.94,-179.9 1101.91,-185.44 1107.34,-189.86"/>
</g>
<!-- 29&#45;&gt;23 -->
<g id="edge45" class="edge">
<title>29&#45;&gt;23</title>
<path fill="none" stroke="black" d="M1081.53,-290.15C1090.08,-280.94 1101.26,-268.91 1110.99,-258.43"/>
<polygon fill="black" stroke="black" points="1113.84,-260.51 1118.08,-250.8 1108.71,-255.74 1113.84,-260.51"/>
</g>
<!-- 29&#45;&gt;36 -->
<g id="edge46" class="edge">
<title>29&#45;&gt;36</title>
<path fill="none" stroke="black" d="M1061.74,-288.26C1052.01,-258.68 1035.2,-195.44 1048.74,-144 1051.24,-134.54 1055.85,-124.99 1060.72,-116.66"/>
<polygon fill="black" stroke="black" points="1063.7,-118.49 1066.02,-108.15 1057.76,-114.79 1063.7,-118.49"/>
</g>
<!-- 30 -->
<g id="node31" class="node">
<title>30</title>
<ellipse fill="none" stroke="black" cx="1137.74" cy="-450" rx="44.39" ry="18"/>
<text text-anchor="middle" x="1137.74" y="-446.3" font-family="Times,serif" font-size="14.00">tinyvec</text>
</g>
<!-- 31 -->
<g id="node32" class="node">
<title>31</title>
<ellipse fill="none" stroke="black" cx="1135.74" cy="-378" rx="82.59" ry="18"/>
<text text-anchor="middle" x="1135.74" y="-374.3" font-family="Times,serif" font-size="14.00">tinyvec_macros</text>
</g>
<!-- 30&#45;&gt;31 -->
<g id="edge47" class="edge">
<title>30&#45;&gt;31</title>
<path fill="none" stroke="black" d="M1137.25,-431.7C1137.03,-423.98 1136.76,-414.71 1136.52,-406.11"/>
<polygon fill="black" stroke="black" points="1140.02,-406 1136.23,-396.1 1133.02,-406.2 1140.02,-406"/>
</g>
<!-- 32&#45;&gt;25 -->
<g id="edge48" class="edge">
<title>32&#45;&gt;25</title>
<path fill="none" stroke="black" d="M646.89,-654.81C685.34,-637.67 757.4,-599.06 786.74,-540 793.87,-525.67 794.54,-517.97 786.74,-504 776.64,-485.91 757.55,-473.23 739.92,-464.82"/>
<polygon fill="black" stroke="black" points="740.9,-461.43 730.34,-460.58 738.07,-467.83 740.9,-461.43"/>
</g>
<!-- 32&#45;&gt;27 -->
<g id="edge49" class="edge">
<title>32&#45;&gt;27</title>
<path fill="none" stroke="black" d="M610.92,-648.99C594.39,-624.53 562.7,-577.66 542.98,-548.49"/>
<polygon fill="black" stroke="black" points="545.78,-546.38 537.28,-540.06 539.98,-550.3 545.78,-546.38"/>
</g>
<!-- 33 -->
<g id="node34" class="node">
<title>33</title>
<ellipse fill="none" stroke="black" cx="700.74" cy="-522" rx="77.19" ry="18"/>
<text text-anchor="middle" x="700.74" y="-518.3" font-family="Times,serif" font-size="14.00">toml_datetime</text>
</g>
<!-- 32&#45;&gt;33 -->
<g id="edge50" class="edge">
<title>32&#45;&gt;33</title>
<path fill="none" stroke="black" d="M630.81,-648.71C644.41,-624.26 670.24,-577.83 686.41,-548.76"/>
<polygon fill="black" stroke="black" points="689.5,-550.42 691.3,-539.98 683.38,-547.02 689.5,-550.42"/>
</g>
<!-- 34 -->
<g id="node35" class="node">
<title>34</title>
<ellipse fill="none" stroke="black" cx="451.74" cy="-594" rx="53.89" ry="18"/>
<text text-anchor="middle" x="451.74" y="-590.3" font-family="Times,serif" font-size="14.00">toml_edit</text>
</g>
<!-- 32&#45;&gt;34 -->
<g id="edge51" class="edge">
<title>32&#45;&gt;34</title>
<path fill="none" stroke="black" d="M596.66,-654.67C569.71,-643.57 526.4,-625.74 494.14,-612.46"/>
<polygon fill="black" stroke="black" points="495.1,-609.07 484.52,-608.49 492.43,-615.54 495.1,-609.07"/>
</g>
<!-- 33&#45;&gt;25 -->
<g id="edge52" class="edge">
<title>33&#45;&gt;25</title>
<path fill="none" stroke="black" d="M700.74,-503.7C700.74,-495.98 700.74,-486.71 700.74,-478.11"/>
<polygon fill="black" stroke="black" points="704.24,-478.1 700.74,-468.1 697.24,-478.1 704.24,-478.1"/>
</g>
<!-- 34&#45;&gt;18 -->
<g id="edge53" class="edge">
<title>34&#45;&gt;18</title>
<path fill="none" stroke="black" d="M410.76,-582.22C364.18,-569.96 288.04,-549.92 237.42,-536.6"/>
<polygon fill="black" stroke="black" points="238.21,-533.19 227.65,-534.03 236.43,-539.96 238.21,-533.19"/>
</g>
<!-- 34&#45;&gt;25 -->
<g id="edge54" class="edge">
<title>34&#45;&gt;25</title>
<path fill="none" stroke="black" d="M441.91,-576.25C431.88,-556.71 419.96,-524.49 436.74,-504 463.76,-471.02 586.28,-458.13 654.51,-453.45"/>
<polygon fill="black" stroke="black" points="654.82,-456.93 664.57,-452.79 654.36,-449.95 654.82,-456.93"/>
</g>
<!-- 34&#45;&gt;27 -->
<g id="edge55" class="edge">
<title>34&#45;&gt;27</title>
<path fill="none" stroke="black" d="M468.91,-576.76C478.39,-567.79 490.34,-556.49 500.83,-546.56"/>
<polygon fill="black" stroke="black" points="503.3,-549.05 508.16,-539.63 498.49,-543.96 503.3,-549.05"/>
</g>
<!-- 34&#45;&gt;33 -->
<g id="edge56" class="edge">
<title>34&#45;&gt;33</title>
<path fill="none" stroke="black" d="M491.75,-581.75C532.74,-570.23 596.85,-552.21 643.26,-539.16"/>
<polygon fill="black" stroke="black" points="644.5,-542.45 653.18,-536.37 642.6,-535.71 644.5,-542.45"/>
</g>
<!-- 49 -->
<g id="node50" class="node">
<title>49</title>
<ellipse fill="none" stroke="black" cx="343.74" cy="-522" rx="46.29" ry="18"/>
<text text-anchor="middle" x="343.74" y="-518.3" font-family="Times,serif" font-size="14.00">winnow</text>
</g>
<!-- 34&#45;&gt;49 -->
<g id="edge57" class="edge">
<title>34&#45;&gt;49</title>
<path fill="none" stroke="black" d="M428.04,-577.64C412.5,-567.56 392,-554.28 375.11,-543.33"/>
<polygon fill="black" stroke="black" points="376.94,-540.35 366.65,-537.85 373.14,-546.22 376.94,-540.35"/>
</g>
<!-- 37&#45;&gt;30 -->
<g id="edge58" class="edge">
<title>37&#45;&gt;30</title>
<path fill="none" stroke="black" d="M1138.5,-503.7C1138.39,-495.98 1138.25,-486.71 1138.13,-478.11"/>
<polygon fill="black" stroke="black" points="1141.63,-478.05 1137.99,-468.1 1134.63,-478.15 1141.63,-478.05"/>
</g>
<!-- 38&#45;&gt;14 -->
<g id="edge59" class="edge">
<title>38&#45;&gt;14</title>
<path fill="none" stroke="black" d="M1196.86,-655.56C1221.35,-645.11 1261.49,-627.97 1292.84,-614.59"/>
<polygon fill="black" stroke="black" points="1294.44,-617.72 1302.26,-610.57 1291.69,-611.28 1294.44,-617.72"/>
</g>
<!-- 38&#45;&gt;17 -->
<g id="edge60" class="edge">
<title>38&#45;&gt;17</title>
<path fill="none" stroke="black" d="M1166.39,-648.76C1162.1,-640.4 1156.75,-630.02 1151.91,-620.61"/>
<polygon fill="black" stroke="black" points="1154.98,-618.93 1147.3,-611.63 1148.76,-622.13 1154.98,-618.93"/>
</g>
<!-- 38&#45;&gt;20 -->
<g id="edge61" class="edge">
<title>38&#45;&gt;20</title>
<path fill="none" stroke="black" d="M1183.23,-648.86C1194.21,-629.32 1215.02,-596.5 1240.74,-576 1259.57,-561 1283.3,-549.39 1304.75,-540.91"/>
<polygon fill="black" stroke="black" points="1306,-544.18 1314.1,-537.35 1303.51,-537.64 1306,-544.18"/>
</g>
<!-- 41 -->
<g id="node42" class="node">
<title>41</title>
<ellipse fill="none" stroke="black" cx="1864.74" cy="-90" rx="87.99" ry="18"/>
<text text-anchor="middle" x="1864.74" y="-86.3" font-family="Times,serif" font-size="14.00">windows&#45;targets</text>
</g>
<!-- 40&#45;&gt;41 -->
<g id="edge62" class="edge">
<title>40&#45;&gt;41</title>
<path fill="none" stroke="black" d="M1864.74,-143.7C1864.74,-135.98 1864.74,-126.71 1864.74,-118.11"/>
<polygon fill="black" stroke="black" points="1868.24,-118.1 1864.74,-108.1 1861.24,-118.1 1868.24,-118.1"/>
</g>
<!-- 42 -->
<g id="node43" class="node">
<title>42</title>
<ellipse fill="none" stroke="black" cx="1130.74" cy="-18" rx="135.38" ry="18"/>
<text text-anchor="middle" x="1130.74" y="-14.3" font-family="Times,serif" font-size="14.00">windows_aarch64_gnullvm</text>
</g>
<!-- 41&#45;&gt;42 -->
<g id="edge63" class="edge">
<title>41&#45;&gt;42</title>
<path fill="none" stroke="black" d="M1784.51,-82.51C1670.94,-73.15 1456.82,-54.92 1274.74,-36 1262.5,-34.73 1249.67,-33.32 1236.93,-31.88"/>
<polygon fill="black" stroke="black" points="1237.08,-28.37 1226.75,-30.71 1236.29,-35.33 1237.08,-28.37"/>
</g>
<!-- 43 -->
<g id="node44" class="node">
<title>43</title>
<ellipse fill="none" stroke="black" cx="1405.74" cy="-18" rx="121.58" ry="18"/>
<text text-anchor="middle" x="1405.74" y="-14.3" font-family="Times,serif" font-size="14.00">windows_aarch64_msvc</text>
</g>
<!-- 41&#45;&gt;43 -->
<g id="edge64" class="edge">
<title>41&#45;&gt;43</title>
<path fill="none" stroke="black" d="M1796.52,-78.6C1717.05,-66.48 1585.4,-46.4 1497.14,-32.94"/>
<polygon fill="black" stroke="black" points="1497.55,-29.46 1487.13,-31.41 1496.49,-36.38 1497.55,-29.46"/>
</g>
<!-- 44 -->
<g id="node45" class="node">
<title>44</title>
<ellipse fill="none" stroke="black" cx="1643.74" cy="-18" rx="98.28" ry="18"/>
<text text-anchor="middle" x="1643.74" y="-14.3" font-family="Times,serif" font-size="14.00">windows_i686_gnu</text>
</g>
<!-- 41&#45;&gt;44 -->
<g id="edge65" class="edge">
<title>41&#45;&gt;44</title>
<path fill="none" stroke="black" d="M1819.22,-74.58C1784.77,-63.67 1737.25,-48.62 1700.35,-36.93"/>
<polygon fill="black" stroke="black" points="1701.32,-33.57 1690.73,-33.88 1699.21,-40.24 1701.32,-33.57"/>
</g>
<!-- 45 -->
<g id="node46" class="node">
<title>45</title>
<ellipse fill="none" stroke="black" cx="1864.74" cy="-18" rx="104.78" ry="18"/>
<text text-anchor="middle" x="1864.74" y="-14.3" font-family="Times,serif" font-size="14.00">windows_i686_msvc</text>
</g>
<!-- 41&#45;&gt;45 -->
<g id="edge66" class="edge">
<title>41&#45;&gt;45</title>
<path fill="none" stroke="black" d="M1864.74,-71.7C1864.74,-63.98 1864.74,-54.71 1864.74,-46.11"/>
<polygon fill="black" stroke="black" points="1868.24,-46.1 1864.74,-36.1 1861.24,-46.1 1868.24,-46.1"/>
</g>
<!-- 46 -->
<g id="node47" class="node">
<title>46</title>
<ellipse fill="none" stroke="black" cx="2097.74" cy="-18" rx="110.48" ry="18"/>
<text text-anchor="middle" x="2097.74" y="-14.3" font-family="Times,serif" font-size="14.00">windows_x86_64_gnu</text>
</g>
<!-- 41&#45;&gt;46 -->
<g id="edge67" class="edge">
<title>41&#45;&gt;46</title>
<path fill="none" stroke="black" d="M1912.18,-74.75C1948.48,-63.84 1998.8,-48.73 2037.88,-36.98"/>
<polygon fill="black" stroke="black" points="2038.99,-40.31 2047.56,-34.08 2036.97,-33.6 2038.99,-40.31"/>
</g>
<!-- 47 -->
<g id="node48" class="node">
<title>47</title>
<ellipse fill="none" stroke="black" cx="2356.74" cy="-18" rx="130.78" ry="18"/>
<text text-anchor="middle" x="2356.74" y="-14.3" font-family="Times,serif" font-size="14.00">windows_x86_64_gnullvm</text>
</g>
<!-- 41&#45;&gt;47 -->
<g id="edge68" class="edge">
<title>41&#45;&gt;47</title>
<path fill="none" stroke="black" d="M1934.71,-79.05C2019.65,-66.96 2163.39,-46.51 2259.18,-32.88"/>
<polygon fill="black" stroke="black" points="2259.76,-36.33 2269.16,-31.46 2258.77,-29.4 2259.76,-36.33"/>
</g>
<!-- 48 -->
<g id="node49" class="node">
<title>48</title>
<ellipse fill="none" stroke="black" cx="2622.74" cy="-18" rx="116.98" ry="18"/>
<text text-anchor="middle" x="2622.74" y="-14.3" font-family="Times,serif" font-size="14.00">windows_x86_64_msvc</text>
</g>
<!-- 41&#45;&gt;48 -->
<g id="edge69" class="edge">
<title>41&#45;&gt;48</title>
<path fill="none" stroke="black" d="M1946.68,-83.45C2067.31,-74.99 2299.73,-57.54 2496.74,-36 2507.5,-34.82 2518.75,-33.48 2529.92,-32.06"/>
<polygon fill="black" stroke="black" points="2530.66,-35.5 2540.13,-30.75 2529.77,-28.56 2530.66,-35.5"/>
</g>
<!-- 49&#45;&gt;19 -->
<g id="edge70" class="edge">
<title>49&#45;&gt;19</title>
<path fill="none" stroke="black" d="M343.74,-503.7C343.74,-495.98 343.74,-486.71 343.74,-478.11"/>
<polygon fill="black" stroke="black" points="347.24,-478.1 343.74,-468.1 340.24,-478.1 347.24,-478.1"/>
</g>
</g>
</svg>
